<svg id="Layer_1" data-name="Layer 1" xmlns="http://www.w3.org/2000/svg" viewBox="0 0 16.51 14"><defs><style>.cls-1{fill:#fff;}</style></defs><title>fordocs</title><g id="AJ2s2o.tif"><path class="cls-1" d="M2.53,11.44H14c0-.15,0-0.29,0-0.43,0-.95,0-1.9,0-2.85,0-.47,0-0.51.53-0.51s1.05,0,1.58,0a0.33,0.33,0,0,1,.41.38q0,2.79,0,5.57a0.34,0.34,0,0,1-.38.39H0.62C0,14,0,14,0,13.37c0-1.74,0-3.48,0-5.22a0.41,0.41,0,0,1,.5-0.5c0.5,0,1,0,1.5,0s0.53,0,.53.52c0,0.94,0,1.87,0,2.81C2.53,11.12,2.53,11.26,2.53,11.44Z"/><path class="cls-1" d="M6.35,5.1c0-.94,0-1.84,0-2.73,0-.55,0-1.11,0-1.66A0.64,0.64,0,0,1,7,0c0.8,0,1.61,0,2.41,0a0.64,0.64,0,0,1,.7.72c0,1.29,0,2.58,0,3.88,0,0.14,0,.29,0,0.48l0.43,0c0.7,0,1.4,0,2.1,0a0.9,0.9,0,0,1,.58.36,0.54,0.54,0,0,1-.14.71L8.73,10.58a0.61,0.61,0,0,1-1,0L3.4,6.21A0.62,0.62,0,0,1,3.22,5.5,0.6,0.6,0,0,1,3.84,5.1H6.35Z"/></g></svg>