<svg id="Layer_1" data-name="Layer 1" xmlns="http://www.w3.org/2000/svg" viewBox="0 0 14.03 14"><defs><style>.cls-1{fill:#fff;}</style></defs><title>fordocs</title><path class="cls-1" d="M7,0a7,7,0,1,0,7,7A7,7,0,0,0,7,0Zm1.22,11.3a0.29,0.29,0,0,1-.33.33H6.24A0.29,0.29,0,0,1,5.9,11.3q0-.82,0-1.64a0.29,0.29,0,0,1,.33-0.33H7.88a0.29,0.29,0,0,1,.34.34Q8.22,10.49,8.22,11.31Zm1.13-4-0.4.24a1.38,1.38,0,0,0-.74,1,0.28,0.28,0,0,1-.3.24H7l-0.8,0A0.31,0.31,0,0,1,5.9,8.38,2.23,2.23,0,0,1,7.24,6.27c0.19-.12.41-0.19,0.59-0.33a1.06,1.06,0,0,0,.33-0.39A0.64,0.64,0,0,0,7.91,4.7a1.38,1.38,0,0,0-1.72.09,8.9,8.9,0,0,0-.6.67,0.3,0.3,0,0,1-.48.06L4,4.66a0.26,0.26,0,0,1-.1-0.4A3.73,3.73,0,0,1,9.1,2.89a2.81,2.81,0,0,1,1.41,2A2.27,2.27,0,0,1,9.35,7.28Z"/></svg>